<svg width="89" height="90" viewBox="0 0 89 90" fill="none" xmlns="http://www.w3.org/2000/svg">
<path d="M69.7137 80.4393C63.5188 73.5206 54.5178 69.1667 44.5 69.1667C34.4822 69.1667 25.4805 73.5206 19.2855 80.4393M44.5 88.5C20.4756 88.5 1 69.0244 1 45C1 20.9756 20.4756 1.5 44.5 1.5C68.5244 1.5 88 20.9756 88 45C88 69.0244 68.5244 88.5 44.5 88.5ZM44.5 54.6667C36.4919 54.6667 30 48.1748 30 40.1667C30 32.1585 36.4919 25.6667 44.5 25.6667C52.5081 25.6667 59 32.1585 59 40.1667C59 48.1748 52.5081 54.6667 44.5 54.6667Z" stroke="#F3F3F3" stroke-width="2" stroke-linecap="round" stroke-linejoin="round"/>
</svg>
